<svg width="1379" height="1358" viewBox="0 0 1379 1358" fill="none" xmlns="http://www.w3.org/2000/svg">
<path d="M802 763C904.725 763 988 679.725 988 577C988 474.275 904.725 391 802 391C699.275 391 616 474.275 616 577C616 679.725 699.275 763 802 763Z" stroke="#99ABCE" stroke-opacity="0.2"/>
<path d="M802 667C851.706 667 892 626.706 892 577C892 527.294 851.706 487 802 487C752.294 487 712 527.294 712 577C712 626.706 752.294 667 802 667Z" stroke="#99ABCE" stroke-opacity="0.2"/>
<path d="M802 867C962.163 867 1092 737.163 1092 577C1092 416.837 962.163 287 802 287C641.837 287 512 416.837 512 577C512 737.163 641.837 867 802 867Z" stroke="#99ABCE" stroke-opacity="0.2"/>
<path d="M802 977C1022.91 977 1202 797.914 1202 577C1202 356.086 1022.91 177 802 177C581.086 177 402 356.086 402 577C402 797.914 581.086 977 802 977Z" stroke="#99ABCE" stroke-opacity="0.2"/>
<path d="M802 1153C1120.12 1153 1378 895.116 1378 577C1378 258.884 1120.12 1 802 1C483.884 1 226 258.884 226 577C226 895.116 483.884 1153 802 1153Z" stroke="#99ABCE" stroke-opacity="0.2"/>
<path d="M564.141 1212.84L548.541 1113.77L641.364 1140.29L564.141 1212.84Z" fill="#ECEEF8"/>
<path d="M663.984 1237.8L564.141 1212.84L641.363 1140.29L663.984 1237.8Z" fill="#C7CBDB"/>
<path d="M663.984 1237.81L564.141 1212.84L586.762 1276.03L663.984 1237.81Z" fill="#D1D5E3"/>
<path d="M515 1198.8L564.141 1212.84L586.762 1276.03L515 1198.8Z" fill="#DEE1EF"/>
<path d="M515 1198.8L564.141 1212.84L548.541 1113.77L515 1198.8Z" fill="#E6E8F4"/>
<path d="M663.984 1237.8L677.245 1241.7L586.762 1276.03L663.984 1237.8Z" fill="#E6E8F4"/>
<path d="M663.984 1237.81L677.245 1241.71L711.566 1158.24L663.984 1237.81Z" fill="#E6E8F4"/>
<path d="M663.984 1237.8L711.565 1158.23L641.363 1140.29L663.984 1237.8Z" fill="#DEE1EF"/>
<path d="M639.803 1081L711.565 1158.23L641.363 1140.29L639.803 1081Z" fill="#E6E8F4"/>
<path d="M639.804 1081L548.541 1113.77L641.364 1140.29L639.804 1081Z" fill="#FCFDFD"/>
<path d="M388.723 889.201L239.83 837.555L351.715 729.96L388.723 889.201Z" fill="#E6E8F4"/>
<path d="M388.723 889.201L433.477 805.707L351.715 729.96L388.723 889.201Z" fill="#DEE1EF"/>
<path d="M388.723 889.208L433.477 805.714L375.813 958.069L388.723 889.208Z" fill="#D1D5E3"/>
<path d="M193.355 718.772L239.83 837.558L351.715 729.962L193.355 718.772Z" fill="#FCFDFD"/>
<path d="M193.355 718.774L312.986 698.977L351.715 729.964L193.355 718.774Z" fill="#F5F6FB"/>
<path d="M193.355 718.772L239.83 837.558L133.97 872.849L193.355 718.772Z" fill="#F5F6FB"/>
<path d="M255.322 977L239.83 837.557L133.97 872.848L255.322 977Z" fill="#E6E8F4"/>
<path d="M255.322 977L239.83 837.557L388.723 889.202L255.322 977Z" fill="#D1D5E3"/>
<path d="M255.322 977L375.813 958.063L388.723 889.202L255.322 977Z" fill="#E6E8F4"/>
<path d="M647.712 902.3L733.737 890.422L677.503 829.162L647.712 902.3Z" fill="#E6E8F4"/>
<path d="M647.708 902.302L611.616 825.316L677.499 829.164L647.708 902.302Z" fill="#C7CBDB"/>
<path d="M647.712 902.301L611.621 825.315L629.146 885.257L647.712 902.301Z" fill="#DEE1EF"/>
<path d="M751.516 804.931L733.736 890.472L677.502 829.212L751.516 804.931Z" fill="#F5F6FB"/>
<path d="M751.516 804.881L676.096 764.945L677.502 829.163L751.516 804.881Z" fill="#FCFDFD"/>
<path d="M751.516 804.881L676.096 764.945L732.612 787.133L751.516 804.881Z" fill="#F5F6FB"/>
<path d="M611.619 825.364L676.096 764.993L677.502 829.211L611.619 825.364Z" fill="#F5F6FB"/>
<path d="M751.515 804.881L733.735 890.423L768.703 864.119L751.515 804.881Z" fill="#E6E8F4"/>
<path d="M704.227 924.489L733.737 890.422L768.705 864.118L704.227 924.489Z" fill="#D1D5E3"/>
<path d="M647.712 902.3L733.737 890.422L704.227 924.489L647.712 902.3Z" fill="#DEE1EF"/>
</svg>
