<svg width="445" height="460" fill="none" xmlns="http://www.w3.org/2000/svg"><path d="M77.481 104.632c-1.1 0-2.202.863-2.202 2.196.236 1.334 1.101 2.196 2.202 2.196s2.202-.862 2.202-2.196c0-1.098-.865-2.196-2.202-2.196zM61.202 71.846c-1.101 0-2.202.863-2.202 2.196.236 1.333 1.101 2.196 2.202 2.196s2.202-.863 2.202-2.196c0-1.098-.865-2.196-2.202-2.196zm0 32.943a1.945 1.945 0 00-1.966 1.961c0 1.098.865 1.961 1.966 1.961a1.945 1.945 0 001.966-1.961c0-1.02-.865-1.961-1.966-1.961zm32.794-32.473a1.944 1.944 0 00-1.966 1.961c-.236 1.098.63 1.961 1.966 1.961a1.944 1.944 0 001.966-1.96c0-1.099-.865-1.962-1.966-1.962zM61.202 88.317c-1.337 0-2.202.863-2.202 2.197 0 1.333 1.101 2.196 2.202 2.196 1.337 0 2.202-.863 2.202-2.197 0-1.333-.865-2.196-2.202-2.196zm16.28-11.843c1.336 0 2.201-.863 2.201-2.197 0-1.333-.865-2.196-2.202-2.196s-2.202.863-2.202 2.196c0 1.098 1.101 2.197 2.202 2.197zm16.514 28.315a1.945 1.945 0 00-1.966 1.961c0 1.098.63 1.961 1.966 1.961a1.945 1.945 0 001.966-1.961c.079-1.02-.865-1.961-1.966-1.961zM77.481 88.082a2.447 2.447 0 00-2.438 2.431c0 1.334 1.337 2.432 2.438 2.432a2.447 2.447 0 002.438-2.431 2.447 2.447 0 00-2.438-2.432zm16.515.235c-1.18 0-2.202 1.02-2.202 2.197 0 1.176 1.023 2.196 2.202 2.196 1.18 0 2.202-1.02 2.202-2.197a2.195 2.195 0 00-2.202-2.196zm0-43.453c1.18 0 2.202-1.02 2.202-2.196 0-1.177-1.022-2.197-2.202-2.197s-2.202 1.02-2.202 2.197a2.195 2.195 0 002.202 2.196zm0-16.472a1.944 1.944 0 001.966-1.96c0-1.099-.865-1.961-1.966-1.961a1.944 1.944 0 00-1.966 1.96c-.236 1.099.708 1.961 1.966 1.961zm-16.515.236c1.337 0 2.202-.863 2.202-2.197 0-1.333-.865-2.196-2.202-2.196s-2.202.863-2.202 2.197c0 1.098 1.101 2.196 2.202 2.196zm16.515 28.315a1.944 1.944 0 00-1.966 1.96c0 1.099.63 1.962 1.966 1.962a1.944 1.944 0 001.966-1.961c.079-1.02-.865-1.961-1.966-1.961zm-32.794 4a1.944 1.944 0 001.966-1.96c0-1.099-.865-1.962-1.966-1.962a1.944 1.944 0 00-1.966 1.961c0 1.098.865 1.961 1.966 1.961zm0-20.471c-1.337 0-2.202.862-2.202 2.196 0 1.333 1.101 2.196 2.202 2.196 1.337 0 2.202-.863 2.202-2.196 0-1.334-.865-2.197-2.202-2.197zm0-16.472C60.101 24 59 24.863 59 26.196c.236 1.334 1.101 2.196 2.202 2.196s2.202-.862 2.202-2.196c0-1.098-.865-2.196-2.202-2.196zm16.28 37.178c1.1 0 2.201-.862 2.201-2.196 0-1.098-.865-2.196-2.202-2.196-1.1 0-2.202.863-2.202 2.196.236 1.255 1.101 2.197 2.202 2.197zm0-20.942a2.447 2.447 0 00-2.439 2.432c0 1.333 1.337 2.431 2.438 2.431a2.447 2.447 0 002.438-2.431 2.447 2.447 0 00-2.438-2.432z" fill="#1E43FF"/><path d="M417.584 62.944v125.889l-109.292 62.944L199 188.833V62.944L308.292 0l109.292 62.944z" fill="#0201FF" fill-opacity=".03"/><path d="M444.584 33.75v57.5l-50 28.75-50-28.75v-57.5l50-28.75 50 28.75z" fill="#0201FF" fill-opacity=".03"/><g filter="url(#filter0_d)"><rect x="75.433" y="48.026" width="277.215" height="298.471" rx="4" fill="#fff"/></g><rect x="88" y="81" width="251" height="109" rx="2" fill="#1E43FF"/><rect x="88" y="57" width="36" height="10" rx="2" fill="#1E43FF"/><rect x="100" y="122" width="101" height="10" rx="2" fill="#fff"/><rect x="161" y="201" width="101" height="8" rx="2" fill="#435B8C"/><rect x="183" y="214" width="57" height="8" rx="2" fill="#435B8C"/><rect x="100" y="138" width="65" height="10" rx="2" fill="#fff"/><rect x="268" y="59" width="17" height="3" rx="1.5" fill="#435B8C"/><rect x="294" y="59" width="17" height="3" rx="1.5" fill="#435B8C"/><rect x="322" y="59" width="17" height="3" rx="1.5" fill="#435B8C"/><rect x="93" y="281" width="57" height="4" rx="2" fill="#435B8C"/><rect x="185" y="281" width="57" height="4" rx="2" fill="#435B8C"/><rect x="274" y="281" width="57" height="4" rx="2" fill="#435B8C"/><rect x="106" y="288" width="31" height="4" rx="2" fill="#435B8C"/><rect x="198" y="288" width="31" height="4" rx="2" fill="#435B8C"/><rect x="287" y="288" width="31" height="4" rx="2" fill="#435B8C"/><circle cx="121.5" cy="256.5" r="16.5" fill="#1E43FF"/><circle cx="213.5" cy="256.5" r="16.5" fill="#1E43FF"/><circle cx="302.5" cy="256.5" r="16.5" fill="#1E43FF"/><rect x="122" y="317" width="179" height="5" rx="2" fill="#99ABCE"/><rect x="140" y="325" width="143" height="5" rx="2" fill="#99ABCE"/><rect x="168" y="333" width="87" height="5" rx="2" fill="#99ABCE"/><path fill="url(#paint0_linear)" d="M75 48.026h278.1v299.356H75z"/><g filter="url(#filter1_d)"><rect x="52" y="264" width="48" height="48" rx="8" fill="#08083D"/></g><path d="M87.56 277H65.24a1.243 1.243 0 00-1.24 1.244v19.912a1.243 1.243 0 001.24 1.244h22.32a1.243 1.243 0 001.24-1.244v-19.912A1.243 1.243 0 0087.56 277zm-21.907 1.659h4.96v3.734h-4.96v-3.734zm21.494 19.082H65.653v-13.689h21.494v13.689zm0-15.348h-14.88v-3.734h14.88v3.734z" fill="#fff"/><path d="M361.481 359.817c-1.101 0-2.202.863-2.202 2.197.236 1.333 1.101 2.196 2.202 2.196s2.202-.863 2.202-2.196c0-1.098-.865-2.197-2.202-2.197zm-16.279-32.786c-1.101 0-2.202.863-2.202 2.197.236 1.333 1.101 2.196 2.202 2.196s2.202-.863 2.202-2.196c0-1.099-.865-2.197-2.202-2.197zm0 32.943a1.945 1.945 0 00-1.966 1.961c0 1.098.865 1.961 1.966 1.961a1.945 1.945 0 001.966-1.961c0-1.019-.865-1.961-1.966-1.961zm32.794-32.472a1.945 1.945 0 00-1.966 1.961c-.236 1.098.629 1.961 1.966 1.961a1.945 1.945 0 001.966-1.961 1.945 1.945 0 00-1.966-1.961zm-32.794 16.001c-1.337 0-2.202.863-2.202 2.196 0 1.333 1.101 2.196 2.202 2.196 1.337 0 2.202-.863 2.202-2.196 0-1.333-.865-2.196-2.202-2.196zm16.279-11.844c1.337 0 2.202-.863 2.202-2.196 0-1.334-.865-2.196-2.202-2.196s-2.202.862-2.202 2.196c0 1.098 1.101 2.196 2.202 2.196zm16.515 28.315a1.945 1.945 0 00-1.966 1.961c0 1.098.629 1.961 1.966 1.961a1.945 1.945 0 001.966-1.961c.079-1.019-.865-1.961-1.966-1.961zm-16.515-16.706a2.447 2.447 0 00-2.438 2.431c0 1.333 1.337 2.432 2.438 2.432a2.448 2.448 0 002.438-2.432 2.447 2.447 0 00-2.438-2.431zm16.515.235c-1.18 0-2.202 1.019-2.202 2.196 0 1.177 1.022 2.196 2.202 2.196s2.202-1.019 2.202-2.196a2.195 2.195 0 00-2.202-2.196zm0-43.454c1.18 0 2.202-1.019 2.202-2.196 0-1.176-1.022-2.196-2.202-2.196s-2.202 1.02-2.202 2.196a2.195 2.195 0 002.202 2.196zm0-16.471a1.945 1.945 0 001.966-1.961 1.945 1.945 0 00-1.966-1.961 1.945 1.945 0 00-1.966 1.961c-.236 1.098.708 1.961 1.966 1.961zm-16.515.235c1.337 0 2.202-.863 2.202-2.196 0-1.333-.865-2.196-2.202-2.196s-2.202.863-2.202 2.196c0 1.098 1.101 2.196 2.202 2.196zm16.515 28.316a1.944 1.944 0 00-1.966 1.96c0 1.099.629 1.961 1.966 1.961a1.944 1.944 0 001.966-1.961c.079-1.019-.865-1.96-1.966-1.96zm-32.794 4a1.945 1.945 0 001.966-1.961 1.945 1.945 0 00-1.966-1.961 1.945 1.945 0 00-1.966 1.961c0 1.098.865 1.961 1.966 1.961zm0-20.472c-1.337 0-2.202.863-2.202 2.196 0 1.334 1.101 2.196 2.202 2.196 1.337 0 2.202-.862 2.202-2.196 0-1.333-.865-2.196-2.202-2.196zm0-16.471c-1.101 0-2.202.862-2.202 2.196.236 1.333 1.101 2.196 2.202 2.196s2.202-.863 2.202-2.196c0-1.098-.865-2.196-2.202-2.196zm16.279 37.178c1.101 0 2.202-.863 2.202-2.196 0-1.098-.865-2.196-2.202-2.196-1.101 0-2.202.862-2.202 2.196.236 1.255 1.101 2.196 2.202 2.196zm0-20.942a2.447 2.447 0 00-2.438 2.431c0 1.334 1.337 2.432 2.438 2.432a2.447 2.447 0 002.438-2.432 2.447 2.447 0 00-2.438-2.431z" fill="#1E43FF"/><defs><filter id="filter0_d" x=".433" y="11.026" width="427.215" height="448.471" filterUnits="userSpaceOnUse" color-interpolation-filters="sRGB"><feFlood flood-opacity="0" result="BackgroundImageFix"/><feColorMatrix in="SourceAlpha" values="0 0 0 0 0 0 0 0 0 0 0 0 0 0 0 0 0 0 127 0"/><feOffset dy="38"/><feGaussianBlur stdDeviation="37.5"/><feColorMatrix values="0 0 0 0 0.0313725 0 0 0 0 0.0313725 0 0 0 0 0.239216 0 0 0 0.19 0"/><feBlend in2="BackgroundImageFix" result="effect1_dropShadow"/><feBlend in="SourceGraphic" in2="effect1_dropShadow" result="shape"/></filter><filter id="filter1_d" x="37" y="254" width="78" height="78" filterUnits="userSpaceOnUse" color-interpolation-filters="sRGB"><feFlood flood-opacity="0" result="BackgroundImageFix"/><feColorMatrix in="SourceAlpha" values="0 0 0 0 0 0 0 0 0 0 0 0 0 0 0 0 0 0 127 0"/><feOffset dy="5"/><feGaussianBlur stdDeviation="7.5"/><feColorMatrix values="0 0 0 0 0.0313725 0 0 0 0 0.0313725 0 0 0 0 0.239216 0 0 0 0.29 0"/><feBlend in2="BackgroundImageFix" result="effect1_dropShadow"/><feBlend in="SourceGraphic" in2="effect1_dropShadow" result="shape"/></filter><linearGradient id="paint0_linear" x1="214.05" y1="347.382" x2="214.05" y2="76.87" gradientUnits="userSpaceOnUse"><stop stop-color="#fff"/><stop offset="1" stop-color="#fff" stop-opacity="0"/></linearGradient></defs></svg>