<svg width="440" height="477" fill="none" xmlns="http://www.w3.org/2000/svg"><path d="M31 62.944v125.889l109.292 62.944 109.292-62.944V62.944L140.292 0 31 62.944z" fill="#0201FF" fill-opacity=".03"/><path d="M4 33.75v57.5L54 120l50-28.75v-57.5L54 5 4 33.75z" fill="#0201FF" fill-opacity=".03"/><path d="M368.153 96.6c-1.141 0-2.282.895-2.282 2.277.244 1.383 1.141 2.277 2.282 2.277s2.282-.894 2.282-2.277c0-1.138-.897-2.277-2.282-2.277zm-16.871-33.993c-1.141 0-2.282.895-2.282 2.277.245 1.383 1.141 2.277 2.282 2.277s2.282-.894 2.282-2.277c0-1.138-.896-2.277-2.282-2.277zm0 34.156a2.015 2.015 0 00-2.037 2.033c0 1.138.896 2.033 2.037 2.033a2.016 2.016 0 002.038-2.033c0-1.057-.897-2.033-2.038-2.033zm33.986-33.668a2.016 2.016 0 00-2.038 2.033c-.244 1.139.652 2.033 2.038 2.033a2.015 2.015 0 002.037-2.033 2.015 2.015 0 00-2.037-2.033zm-33.986 16.59c-1.385 0-2.282.895-2.282 2.277 0 1.383 1.141 2.277 2.282 2.277 1.386 0 2.282-.894 2.282-2.277 0-1.382-.896-2.277-2.282-2.277zm16.871-12.28c1.385 0 2.282-.894 2.282-2.277 0-1.382-.897-2.277-2.282-2.277-1.386 0-2.282.895-2.282 2.277 0 1.139 1.141 2.277 2.282 2.277zm17.115 29.358a2.016 2.016 0 00-2.038 2.033c0 1.138.652 2.033 2.038 2.033a2.015 2.015 0 002.037-2.033c.082-1.057-.896-2.033-2.037-2.033zM368.153 79.44a2.537 2.537 0 00-2.527 2.521c0 1.383 1.386 2.521 2.527 2.521a2.536 2.536 0 002.526-2.52 2.536 2.536 0 00-2.526-2.522zm17.115.244c-1.223 0-2.282 1.057-2.282 2.277 0 1.22 1.059 2.277 2.282 2.277 1.222 0 2.282-1.057 2.282-2.277 0-1.22-.978-2.277-2.282-2.277zm0-45.053c1.222 0 2.282-1.057 2.282-2.277 0-1.22-1.06-2.277-2.282-2.277-1.223 0-2.282 1.057-2.282 2.277a2.275 2.275 0 002.282 2.277zm0-17.078a2.015 2.015 0 002.037-2.033 2.015 2.015 0 00-2.037-2.033 2.016 2.016 0 00-2.038 2.033c-.244 1.139.734 2.033 2.038 2.033zm-17.115.244c1.385 0 2.282-.894 2.282-2.277s-.897-2.277-2.282-2.277c-1.386 0-2.282.895-2.282 2.277 0 1.139 1.141 2.277 2.282 2.277zm17.115 29.358a2.016 2.016 0 00-2.038 2.033c0 1.138.652 2.033 2.038 2.033a2.015 2.015 0 002.037-2.033c.082-1.057-.896-2.033-2.037-2.033zm-33.986 4.147a2.016 2.016 0 002.038-2.033 2.016 2.016 0 00-2.038-2.033 2.015 2.015 0 00-2.037 2.033c0 1.139.896 2.033 2.037 2.033zm0-21.225c-1.385 0-2.282.894-2.282 2.277 0 1.382 1.141 2.277 2.282 2.277 1.386 0 2.282-.895 2.282-2.277 0-1.383-.896-2.277-2.282-2.277zm0-17.078c-1.141 0-2.282.895-2.282 2.277.245 1.383 1.141 2.277 2.282 2.277s2.282-.894 2.282-2.277c0-1.138-.896-2.277-2.282-2.277zm16.871 38.547c1.141 0 2.282-.894 2.282-2.277 0-1.138-.897-2.277-2.282-2.277-1.141 0-2.282.895-2.282 2.277.244 1.301 1.141 2.277 2.282 2.277zm0-21.713a2.537 2.537 0 00-2.527 2.52c0 1.383 1.386 2.522 2.527 2.522a2.536 2.536 0 002.526-2.521 2.536 2.536 0 00-2.526-2.521z" fill="#1E43FF"/><g filter="url(#filter0_d)"><path fill="#FEFEFE" d="M75 51.088h289.819v311.971H75z"/></g><path fill="#99ABCE" d="M155 105h136v212H155z"/><rect x="138" y="94" width="164" height="34" rx="4" fill="#1E43FF"/><circle cx="155" cy="111" r="6" fill="#fff"/><circle cx="173" cy="111" r="6" fill="#8599FF"/><circle cx="191" cy="111" r="6" fill="#fff"/><rect x="254" y="108" width="37" height="6" rx="3" fill="#8599FF"/><rect x="138" y="155" width="164" height="34" rx="4" fill="#1E43FF"/><circle cx="155" cy="172" r="6" fill="#fff"/><circle cx="173" cy="172" r="6" fill="#8599FF"/><circle cx="191" cy="172" r="6" fill="#fff"/><rect x="254" y="169" width="37" height="6" rx="3" fill="#8599FF"/><rect x="138" y="216" width="164" height="34" rx="4" fill="#1E43FF"/><circle cx="155" cy="233" r="6" fill="#fff"/><circle cx="173" cy="233" r="6" fill="#8599FF"/><circle cx="191" cy="233" r="6" fill="#fff"/><rect x="254" y="230" width="37" height="6" rx="3" fill="#8599FF"/><rect x="138" y="277" width="164" height="42" rx="4" fill="#1E43FF"/><rect x="254" y="287.5" width="34" height="21" rx="4" fill="#8599FF"/><rect x="155" y="285.25" width="6" height="23.25" rx="3" fill="#fff"/><rect x="172" y="285.25" width="6" height="23.25" rx="3" fill="#8599FF"/><rect x="189" y="285.25" width="6" height="23.25" rx="3" fill="#fff"/><path fill="url(#paint0_linear)" d="M75 51.088h289.819v311.971H75z"/><path d="M67.203 380.102c-1.148 0-2.295.899-2.295 2.289.246 1.39 1.147 2.289 2.295 2.289 1.147 0 2.294-.899 2.294-2.289 0-1.144-.901-2.289-2.294-2.289zm-16.965-34.167c-1.148 0-2.295.899-2.295 2.288.246 1.39 1.147 2.289 2.295 2.289 1.147 0 2.294-.899 2.294-2.289 0-1.144-.901-2.288-2.294-2.288zm0 34.331a2.026 2.026 0 00-2.05 2.043c0 1.145.902 2.044 2.05 2.044a2.026 2.026 0 002.049-2.044c0-1.062-.902-2.043-2.05-2.043zm34.176-33.841a2.026 2.026 0 00-2.05 2.044c-.245 1.144.656 2.043 2.05 2.043a2.026 2.026 0 002.049-2.043 2.026 2.026 0 00-2.05-2.044zM50.238 363.1c-1.394 0-2.295.899-2.295 2.289 0 1.39 1.147 2.289 2.295 2.289 1.393 0 2.294-.899 2.294-2.289 0-1.39-.901-2.289-2.294-2.289zm16.965-12.343c1.393 0 2.294-.899 2.294-2.288 0-1.39-.901-2.289-2.294-2.289-1.394 0-2.295.899-2.295 2.289 0 1.144 1.147 2.288 2.295 2.288zm17.21 29.509a2.026 2.026 0 00-2.048 2.043c0 1.145.655 2.044 2.049 2.044a2.026 2.026 0 002.049-2.044c.082-1.062-.902-2.043-2.05-2.043zm-17.21-17.411a2.55 2.55 0 00-2.54 2.534c0 1.39 1.392 2.534 2.54 2.534a2.55 2.55 0 002.54-2.534 2.55 2.55 0 00-2.54-2.534zm17.21.245c-1.229 0-2.294 1.063-2.294 2.289 0 1.226 1.065 2.289 2.295 2.289 1.229 0 2.294-1.063 2.294-2.289a2.288 2.288 0 00-2.294-2.289zm0-45.284c1.23 0 2.296-1.063 2.296-2.289 0-1.226-1.066-2.289-2.295-2.289-1.23 0-2.295 1.063-2.295 2.289a2.288 2.288 0 002.295 2.289zm0-17.166a2.026 2.026 0 002.05-2.043 2.026 2.026 0 00-2.05-2.044 2.026 2.026 0 00-2.048 2.044c-.246 1.144.737 2.043 2.049 2.043zm-17.21.245c1.393 0 2.294-.899 2.294-2.288 0-1.39-.901-2.289-2.294-2.289-1.394 0-2.295.899-2.295 2.289 0 1.144 1.147 2.288 2.295 2.288zm17.21 29.509a2.026 2.026 0 00-2.048 2.043c0 1.145.655 2.044 2.049 2.044a2.026 2.026 0 002.049-2.044c.082-1.062-.902-2.043-2.05-2.043zm-34.175 4.169a2.026 2.026 0 002.049-2.044 2.026 2.026 0 00-2.05-2.043 2.026 2.026 0 00-2.048 2.043c0 1.145.901 2.044 2.049 2.044zm0-21.335c-1.394 0-2.295.899-2.295 2.289 0 1.39 1.147 2.289 2.295 2.289 1.393 0 2.294-.899 2.294-2.289 0-1.39-.901-2.289-2.294-2.289zm0-17.165c-1.148 0-2.295.899-2.295 2.288.246 1.39 1.147 2.289 2.295 2.289 1.147 0 2.294-.899 2.294-2.289 0-1.144-.901-2.288-2.294-2.288zm16.965 38.745c1.147 0 2.294-.899 2.294-2.289 0-1.144-.901-2.289-2.294-2.289-1.148 0-2.295.9-2.295 2.289.246 1.308 1.147 2.289 2.295 2.289zm0-21.825a2.55 2.55 0 00-2.54 2.534c0 1.39 1.392 2.534 2.54 2.534a2.55 2.55 0 002.54-2.534 2.55 2.55 0 00-2.54-2.534z" fill="#1E43FF"/><g filter="url(#filter1_d)"><path d="M382.543 313.533c-2.684-7.078-9.522-12.111-17.531-12.111-8.01 0-14.848 5.027-17.532 12.105-5.021 1.319-8.73 5.889-8.73 11.332 0 6.475 5.244 11.719 11.713 11.719h29.074c6.469 0 11.713-5.244 11.713-11.719 0-5.431-3.697-10.002-8.707-11.326z" fill="#08083D"/></g><path d="M370.035 322.546v5.39h2.695v-5.39h4.043l-5.39-6.738-5.39 6.738h4.042zM360.603 321.199v-5.39h-2.695v5.39h-4.043l5.39 6.737 5.39-6.737h-4.042z" fill="#fff"/><defs><filter id="filter0_d" x="0" y="14.088" width="439.819" height="461.971" filterUnits="userSpaceOnUse" color-interpolation-filters="sRGB"><feFlood flood-opacity="0" result="BackgroundImageFix"/><feColorMatrix in="SourceAlpha" values="0 0 0 0 0 0 0 0 0 0 0 0 0 0 0 0 0 0 127 0"/><feOffset dy="38"/><feGaussianBlur stdDeviation="37.5"/><feColorMatrix values="0 0 0 0 0.0313725 0 0 0 0 0.0313725 0 0 0 0 0.239216 0 0 0 0.19 0"/><feBlend in2="BackgroundImageFix" result="effect1_dropShadow"/><feBlend in="SourceGraphic" in2="effect1_dropShadow" result="shape"/></filter><filter id="filter1_d" x="323.75" y="291.422" width="82.5" height="65.156" filterUnits="userSpaceOnUse" color-interpolation-filters="sRGB"><feFlood flood-opacity="0" result="BackgroundImageFix"/><feColorMatrix in="SourceAlpha" values="0 0 0 0 0 0 0 0 0 0 0 0 0 0 0 0 0 0 127 0"/><feOffset dy="5"/><feGaussianBlur stdDeviation="7.5"/><feColorMatrix values="0 0 0 0 0.0313725 0 0 0 0 0.0313725 0 0 0 0 0.239216 0 0 0 0.29 0"/><feBlend in2="BackgroundImageFix" result="effect1_dropShadow"/><feBlend in="SourceGraphic" in2="effect1_dropShadow" result="shape"/></filter><linearGradient id="paint0_linear" x1="219.909" y1="363.059" x2="219.909" y2="81.148" gradientUnits="userSpaceOnUse"><stop stop-color="#fff"/><stop offset="1" stop-color="#fff" stop-opacity="0"/></linearGradient></defs></svg>