<svg width="440" height="476" fill="none" xmlns="http://www.w3.org/2000/svg"><path d="M31 62.944v125.889l109.292 62.944 109.292-62.944V62.944L140.292 0 31 62.944z" fill="#0201FF" fill-opacity=".03"/><path d="M4 33.75v57.5L54 120l50-28.75v-57.5L54 5 4 33.75z" fill="#0201FF" fill-opacity=".03"/><path d="M368.153 96.6c-1.141 0-2.282.895-2.282 2.277.244 1.383 1.141 2.277 2.282 2.277s2.282-.894 2.282-2.277c0-1.138-.897-2.277-2.282-2.277zm-16.871-33.993c-1.141 0-2.282.895-2.282 2.277.245 1.383 1.141 2.277 2.282 2.277s2.282-.894 2.282-2.277c0-1.138-.896-2.277-2.282-2.277zm0 34.156a2.015 2.015 0 00-2.037 2.033c0 1.138.896 2.033 2.037 2.033a2.016 2.016 0 002.038-2.033c0-1.057-.897-2.033-2.038-2.033zm33.986-33.668a2.016 2.016 0 00-2.038 2.033c-.244 1.139.652 2.033 2.038 2.033a2.015 2.015 0 002.037-2.033 2.015 2.015 0 00-2.037-2.033zm-33.986 16.59c-1.385 0-2.282.895-2.282 2.277 0 1.383 1.141 2.277 2.282 2.277 1.386 0 2.282-.894 2.282-2.277 0-1.382-.896-2.277-2.282-2.277zm16.871-12.28c1.385 0 2.282-.894 2.282-2.277 0-1.382-.897-2.277-2.282-2.277-1.386 0-2.282.895-2.282 2.277 0 1.139 1.141 2.277 2.282 2.277zm17.115 29.358a2.016 2.016 0 00-2.038 2.033c0 1.138.652 2.033 2.038 2.033a2.015 2.015 0 002.037-2.033c.082-1.057-.896-2.033-2.037-2.033zM368.153 79.44a2.537 2.537 0 00-2.527 2.521c0 1.383 1.386 2.521 2.527 2.521a2.536 2.536 0 002.526-2.52 2.536 2.536 0 00-2.526-2.522zm17.115.244c-1.223 0-2.282 1.057-2.282 2.277 0 1.22 1.059 2.277 2.282 2.277 1.222 0 2.282-1.057 2.282-2.277 0-1.22-.978-2.277-2.282-2.277zm0-45.053c1.222 0 2.282-1.057 2.282-2.277 0-1.22-1.06-2.277-2.282-2.277-1.223 0-2.282 1.057-2.282 2.277a2.275 2.275 0 002.282 2.277zm0-17.078a2.015 2.015 0 002.037-2.033 2.015 2.015 0 00-2.037-2.033 2.016 2.016 0 00-2.038 2.033c-.244 1.139.734 2.033 2.038 2.033zm-17.115.244c1.385 0 2.282-.894 2.282-2.277s-.897-2.277-2.282-2.277c-1.386 0-2.282.895-2.282 2.277 0 1.139 1.141 2.277 2.282 2.277zm17.115 29.358a2.016 2.016 0 00-2.038 2.033c0 1.138.652 2.033 2.038 2.033a2.015 2.015 0 002.037-2.033c.082-1.057-.896-2.033-2.037-2.033zm-33.986 4.147a2.016 2.016 0 002.038-2.033 2.016 2.016 0 00-2.038-2.033 2.015 2.015 0 00-2.037 2.033c0 1.139.896 2.033 2.037 2.033zm0-21.225c-1.385 0-2.282.894-2.282 2.277 0 1.382 1.141 2.277 2.282 2.277 1.386 0 2.282-.895 2.282-2.277 0-1.383-.896-2.277-2.282-2.277zm0-17.078c-1.141 0-2.282.895-2.282 2.277.245 1.383 1.141 2.277 2.282 2.277s2.282-.894 2.282-2.277c0-1.138-.896-2.277-2.282-2.277zm16.871 38.547c1.141 0 2.282-.894 2.282-2.277 0-1.138-.897-2.277-2.282-2.277-1.141 0-2.282.895-2.282 2.277.244 1.301 1.141 2.277 2.282 2.277zm0-21.713a2.537 2.537 0 00-2.527 2.52c0 1.383 1.386 2.522 2.527 2.522a2.536 2.536 0 002.526-2.521 2.536 2.536 0 00-2.526-2.521z" fill="#1E43FF"/><g filter="url(#filter0_d)"><rect x="75.178" y="51.088" width="288.896" height="311.048" rx="4" fill="#fff"/></g><path fill="#435B8C" d="M103.07 86.984h83.114v5.066H103.07zM118.654 121.719h32.652v5.066h-32.652zM118.654 133.298h32.652v5.066h-32.652zM118.654 144.876h32.652v5.066h-32.652zM118.654 156.455h32.652v5.066h-32.652z"/><path fill="#1E43FF" d="M103.07 76.853h160.292v5.066H103.07z"/><path fill="#99ABCE" d="M194.346 86.984h73.467v5.066h-73.467zM160.211 121.719h73.467v5.066h-73.467zM160.211 133.298h73.467v5.066h-73.467zM160.211 144.876h73.467v5.066h-73.467zM160.211 156.455h73.467v5.066h-73.467zM103.07 98.563h73.467v5.066H103.07zM250.004 98.563h86.083v5.066h-86.083zM103.07 110.141h109.829v5.066H103.07zM273.75 86.984h20.779v5.066H273.75zM239.615 121.719h20.779v5.066h-20.779zM239.615 133.298h20.779v5.066h-20.779zM239.615 144.876h20.779v5.066h-20.779zM239.615 156.455h20.779v5.066h-20.779zM182.473 98.563h20.779v5.066h-20.779zM299.723 86.984h36.362v5.066h-36.362z"/><path fill="#435B8C" d="M208.446 98.563h36.362v5.066h-36.362zM103.07 169.481h83.114v5.066H103.07zM118.654 204.216h32.652v5.066h-32.652zM118.654 215.794h32.652v5.066h-32.652zM118.654 227.373h32.652v5.066h-32.652zM118.654 238.951h32.652v5.066h-32.652z"/><path fill="#99ABCE" d="M194.346 169.481h73.467v5.066h-73.467zM160.211 204.216h73.467v5.066h-73.467zM160.211 215.794h73.467v5.066h-73.467zM160.211 227.373h73.467v5.066h-73.467zM160.211 238.951h73.467v5.066h-73.467zM103.07 181.059h73.467v5.066H103.07zM250.004 181.059h86.083v5.066h-86.083zM103.07 192.638h109.829v5.066H103.07zM273.75 169.481h20.779v5.066H273.75zM239.615 204.216h20.779v5.066h-20.779zM239.615 215.794h20.779v5.066h-20.779zM239.615 227.373h20.779v5.066h-20.779zM239.615 238.951h20.779v5.066h-20.779zM182.473 181.059h20.779v5.066h-20.779zM299.723 169.481h36.362v5.066h-36.362z"/><path fill="#435B8C" d="M208.446 181.059h36.362v5.066h-36.362zM103.07 251.977h83.114v5.066H103.07zM118.654 286.713h32.652v5.066h-32.652zM118.654 298.291h32.652v5.066h-32.652zM118.654 309.87h32.652v5.066h-32.652zM118.654 321.448h32.652v5.066h-32.652z"/><path fill="#99ABCE" d="M194.346 251.977h73.467v5.066h-73.467zM160.211 286.713h73.467v5.066h-73.467zM160.211 298.291h73.467v5.066h-73.467zM160.211 309.87h73.467v5.066h-73.467zM160.211 321.448h73.467v5.066h-73.467zM103.07 263.556h73.467v5.066H103.07zM250.004 263.556h86.083v5.066h-86.083zM103.07 275.134h109.829v5.066H103.07zM273.75 251.977h20.779v5.066H273.75zM239.615 286.713h20.779v5.066h-20.779zM239.615 298.291h20.779v5.066h-20.779zM239.615 309.87h20.779v5.066h-20.779zM239.615 321.448h20.779v5.066h-20.779zM182.473 263.556h20.779v5.066h-20.779zM299.723 251.977h36.362v5.066h-36.362z"/><path fill="#435B8C" d="M208.446 263.556h36.362v5.066h-36.362z"/><path fill="url(#paint0_linear)" d="M74.254 51.088h289.819v311.971H74.254z"/><g filter="url(#filter1_d)"><rect x="328" y="298" width="61.275" height="29.374" rx="14.687" fill="#08083D"/></g><path d="M352.093 318.17a.608.608 0 01-.379-.152l-6.424-4.396a1.557 1.557 0 01-.417-.379.77.77 0 01-.133-.455v-.455c0-.177.038-.328.114-.455.088-.126.233-.259.436-.398l6.424-4.377c.139-.114.265-.171.379-.171.114 0 .202.038.265.114.076.063.114.158.114.284v1.459a.644.644 0 01-.114.398 1.9 1.9 0 01-.36.303l-4.586 3.071 4.586 3.07c.164.113.284.221.36.322a.532.532 0 01.114.36v1.478a.384.384 0 01-.114.284.403.403 0 01-.265.095zM354.535 320.804a.363.363 0 01-.265-.114.383.383 0 01-.114-.284c0-.076.013-.145.038-.208l6.444-15.483a.74.74 0 01.227-.265.551.551 0 01.379-.133h1.232c.114 0 .208.038.284.114.076.075.114.17.114.284a.558.558 0 01-.038.208l-6.481 15.483a.598.598 0 01-.209.266c-.088.088-.215.132-.379.132h-1.232zM364.916 318.17a.403.403 0 01-.265-.095.384.384 0 01-.114-.284v-1.478c0-.152.038-.272.114-.36.076-.101.196-.209.36-.322l4.586-3.07-4.586-3.071a1.9 1.9 0 01-.36-.303.644.644 0 01-.114-.398v-1.459c0-.126.038-.221.114-.284a.363.363 0 01.265-.114c.114 0 .241.057.38.171l6.424 4.377c.202.139.341.272.417.398a.777.777 0 01.132.455v.455a.777.777 0 01-.132.455 1.588 1.588 0 01-.417.379l-6.424 4.396a.61.61 0 01-.38.152z" fill="#fff"/><path d="M67.203 380.102c-1.148 0-2.295.899-2.295 2.289.246 1.39 1.147 2.289 2.295 2.289 1.147 0 2.294-.899 2.294-2.289 0-1.144-.901-2.289-2.294-2.289zm-16.965-34.167c-1.148 0-2.295.899-2.295 2.288.246 1.39 1.147 2.289 2.295 2.289 1.147 0 2.294-.899 2.294-2.289 0-1.144-.901-2.288-2.294-2.288zm0 34.331a2.026 2.026 0 00-2.05 2.043c0 1.145.902 2.044 2.05 2.044a2.026 2.026 0 002.049-2.044c0-1.062-.902-2.043-2.05-2.043zm34.176-33.841a2.026 2.026 0 00-2.05 2.044c-.245 1.144.656 2.043 2.05 2.043a2.026 2.026 0 002.049-2.043 2.026 2.026 0 00-2.05-2.044zM50.238 363.1c-1.394 0-2.295.899-2.295 2.289 0 1.39 1.147 2.289 2.295 2.289 1.393 0 2.294-.899 2.294-2.289 0-1.39-.901-2.289-2.294-2.289zm16.965-12.343c1.393 0 2.294-.899 2.294-2.288 0-1.39-.901-2.289-2.294-2.289-1.394 0-2.295.899-2.295 2.289 0 1.144 1.147 2.288 2.295 2.288zm17.21 29.509a2.026 2.026 0 00-2.048 2.043c0 1.145.655 2.044 2.049 2.044a2.026 2.026 0 002.049-2.044c.082-1.062-.902-2.043-2.05-2.043zm-17.21-17.411a2.55 2.55 0 00-2.54 2.534c0 1.39 1.392 2.534 2.54 2.534a2.55 2.55 0 002.54-2.534 2.55 2.55 0 00-2.54-2.534zm17.21.245c-1.229 0-2.294 1.063-2.294 2.289 0 1.226 1.065 2.289 2.295 2.289 1.229 0 2.294-1.063 2.294-2.289a2.288 2.288 0 00-2.294-2.289zm0-45.284c1.23 0 2.296-1.063 2.296-2.289 0-1.226-1.066-2.289-2.295-2.289-1.23 0-2.295 1.063-2.295 2.289a2.288 2.288 0 002.295 2.289zm0-17.166a2.026 2.026 0 002.05-2.043 2.026 2.026 0 00-2.05-2.044 2.026 2.026 0 00-2.048 2.044c-.246 1.144.737 2.043 2.049 2.043zm-17.21.245c1.393 0 2.294-.899 2.294-2.288 0-1.39-.901-2.289-2.294-2.289-1.394 0-2.295.899-2.295 2.289 0 1.144 1.147 2.288 2.295 2.288zm17.21 29.509a2.026 2.026 0 00-2.048 2.043c0 1.145.655 2.044 2.049 2.044a2.026 2.026 0 002.049-2.044c.082-1.062-.902-2.043-2.05-2.043zm-34.175 4.169a2.026 2.026 0 002.049-2.044 2.026 2.026 0 00-2.05-2.043 2.026 2.026 0 00-2.048 2.043c0 1.145.901 2.044 2.049 2.044zm0-21.335c-1.394 0-2.295.899-2.295 2.289 0 1.39 1.147 2.289 2.295 2.289 1.393 0 2.294-.899 2.294-2.289 0-1.39-.901-2.289-2.294-2.289zm0-17.165c-1.148 0-2.295.899-2.295 2.288.246 1.39 1.147 2.289 2.295 2.289 1.147 0 2.294-.899 2.294-2.289 0-1.144-.901-2.288-2.294-2.288zm16.965 38.745c1.147 0 2.294-.899 2.294-2.289 0-1.144-.901-2.289-2.294-2.289-1.148 0-2.295.9-2.295 2.289.246 1.308 1.147 2.289 2.295 2.289zm0-21.825a2.55 2.55 0 00-2.54 2.534c0 1.39 1.392 2.534 2.54 2.534a2.55 2.55 0 002.54-2.534 2.55 2.55 0 00-2.54-2.534z" fill="#1E43FF"/><defs><filter id="filter0_d" x=".178" y="14.088" width="438.896" height="461.048" filterUnits="userSpaceOnUse" color-interpolation-filters="sRGB"><feFlood flood-opacity="0" result="BackgroundImageFix"/><feColorMatrix in="SourceAlpha" values="0 0 0 0 0 0 0 0 0 0 0 0 0 0 0 0 0 0 127 0"/><feOffset dy="38"/><feGaussianBlur stdDeviation="37.5"/><feColorMatrix values="0 0 0 0 0.0313725 0 0 0 0 0.0313725 0 0 0 0 0.239216 0 0 0 0.19 0"/><feBlend in2="BackgroundImageFix" result="effect1_dropShadow"/><feBlend in="SourceGraphic" in2="effect1_dropShadow" result="shape"/></filter><filter id="filter1_d" x="313" y="288" width="91.275" height="59.374" filterUnits="userSpaceOnUse" color-interpolation-filters="sRGB"><feFlood flood-opacity="0" result="BackgroundImageFix"/><feColorMatrix in="SourceAlpha" values="0 0 0 0 0 0 0 0 0 0 0 0 0 0 0 0 0 0 127 0"/><feOffset dy="5"/><feGaussianBlur stdDeviation="7.5"/><feColorMatrix values="0 0 0 0 0.0313725 0 0 0 0 0.0313725 0 0 0 0 0.239216 0 0 0 0.29 0"/><feBlend in2="BackgroundImageFix" result="effect1_dropShadow"/><feBlend in="SourceGraphic" in2="effect1_dropShadow" result="shape"/></filter><linearGradient id="paint0_linear" x1="219.164" y1="363.059" x2="219.164" y2="81.148" gradientUnits="userSpaceOnUse"><stop stop-color="#fff"/><stop offset="1" stop-color="#fff" stop-opacity="0"/></linearGradient></defs></svg>