<?xml version="1.0" encoding="utf-8"?>
<!-- Generator: Adobe Illustrator 24.1.1, SVG Export Plug-In . SVG Version: 6.00 Build 0)  -->
<svg version="1.1" xmlns="http://www.w3.org/2000/svg" xmlns:xlink="http://www.w3.org/1999/xlink" x="0px" y="0px"
	 viewBox="0 0 704 162" style="enable-background:new 0 0 704 162;" xml:space="preserve">
<style type="text/css">
	.st0{fill:#1E43FF;}
	.st1{fill:#08083D;}
</style>
<g id="Layer_1">
	<path class="st0" d="M140,42.6C140,42.5,140,42.5,140,42.6c0-0.2,0-0.3,0-0.4v-0.1c0,0,0,0,0-0.1V42c0-0.1,0-0.2-0.1-0.3v-0.1
		c0,0,0-0.1-0.1-0.1c0,0,0-0.1-0.1-0.1v-0.1l-0.1-0.1c0,0,0-0.1-0.1-0.1c0-0.1-0.1-0.1-0.1-0.2l-0.1-0.1c0,0,0-0.1-0.1-0.1
		c0,0,0,0-0.1-0.1l-0.1-0.1l-0.1-0.1l-0.1-0.1l-0.1-0.1l-0.1-0.1c0,0-0.1,0-0.1-0.1l-0.1-0.1c0,0,0,0-0.1-0.1L71.6,1.5
		c-1-0.6-2.2-0.6-3.3,0L1.6,39.8c0,0-0.1,0-0.1,0.1c0,0-0.1,0-0.1,0.1c0,0-0.1,0-0.1,0.1l-0.1,0.1l-0.1,0.1L1,40.4l-0.1,0.1
		l-0.1,0.1c0,0,0,0-0.1,0.1l-0.1,0.1l-0.1,0.1c0,0.1-0.1,0.1-0.1,0.2c0,0,0,0.1-0.1,0.1l-0.1,0.1v0.1c0,0,0,0.1-0.1,0.1
		c0,0,0,0.1-0.1,0.1v0.1c0,0.1-0.1,0.2-0.1,0.3V42c0,0,0,0,0,0.1v0.1c0,0.1,0,0.2,0,0.3v0.1v76.7c0,0.1,0,0.1,0,0.2c0,0,0,0,0,0.1
		c0,0,0,0,0,0.1c0,0.2,0.1,0.5,0.1,0.7v0.1c0.1,0.2,0.2,0.5,0.3,0.7c0.1,0.2,0.3,0.4,0.5,0.6l0.1,0.1c0.2,0.2,0.4,0.3,0.6,0.4
		c0,0,0,0,0.1,0l66.8,38.4c0.1,0,0.1,0.1,0.2,0.1s0.1,0.1,0.2,0.1c0,0,0,0,0.1,0h0.1H69c0.1,0,0.1,0,0.2,0.1c0.1,0,0.1,0,0.2,0h0.1
		h0.1c0.2,0,0.3,0,0.5,0s0.3,0,0.5,0h0.1h0.1c0.1,0,0.1,0,0.2,0s0.1,0,0.2-0.1h0.1h0.1c0,0,0,0,0.1,0s0.1-0.1,0.2-0.1
		s0.1-0.1,0.2-0.1l66.8-38.4c0,0,0,0,0.1,0c0.2-0.1,0.4-0.3,0.6-0.4l0.1-0.1c0.4-0.4,0.6-0.7,0.7-1.2v-0.1c0.1-0.2,0.1-0.5,0.1-0.7
		c0,0,0,0,0-0.1c0,0,0,0,0-0.1c0-0.1,0-0.1,0-0.2L140,42.6L140,42.6z M15.4,44.5L64,38.9L49.2,64.3L36.4,86.4L8.9,45.2L15.4,44.5z
		 M44.3,85.9L70,41.4l27.7,47.9H42.2L44.3,85.9z M98.1,95.8L70,150.7l-28-54.9H98.1z M103.6,86.4L76,39l55,6.3L118,64.8L103.6,86.4z
		 M12.2,62l20.1,30L6.5,112.7V53.3L12.2,62z M104.4,97.6l10.2,8.2l16.3,13.2l-53.1,30.6L104.4,97.6z M107.7,91.9l20.1-30l5.7-8.6
		v59.3L107.7,91.9z M73.2,32.1V9.9l48.3,27.8L73.2,32.1z M66.8,9.9v22.2l-48.3,5.6L66.8,9.9z M9,119l16.3-13.2l10.2-8.2l15.8,30.9
		l10.8,21.1L9,119z"/>
</g>
<g id="Layer_11">
	<path class="st1" d="M224.9,101.9c-4.3-3.9-6.6-9.5-6.9-16.8v-7.9c0.3-7.2,2.6-12.5,6.9-16.8c4.3-3.9,10.2-5.9,17.5-5.9
		c5.3,0,9.6,1,13.2,2.6c3.6,2,6.3,3.9,7.9,6.9c1.6,2.6,2.6,5.3,3,7.6c0,0.7,0,1.3-0.7,1.6c-0.3,0.3-1,0.7-1.6,0.7h-8.9
		c-0.7,0-1.3,0-1.6-0.3c-0.3-0.3-0.7-1-1-1.6c-1-2.6-2.3-4.3-4-5.3c-1.6-1-3.6-1.6-6.3-1.6c-3.3,0-5.9,1-7.9,3.3c-2,2-3,5.3-3,9.5
		v6.9c0.3,8.5,4,12.8,10.9,12.8c2.6,0,4.6-0.7,6.3-1.6c1.6-1,3-3,4-5.6c0.3-0.7,0.7-1.3,1-1.6c0.3-0.3,1-0.3,1.6-0.3h8.9
		c0.7,0,1.3,0.3,1.6,0.7c0.3,0.3,0.7,1,0.7,1.6c0,2.3-1,4.9-2.6,7.6c-1.6,2.6-4.3,4.9-7.9,6.9c-3.6,2-7.9,3-13.2,3
		C235.1,107.8,229.2,105.8,224.9,101.9z"/>
</g>
<g id="Layer_2">
	<path class="st1" d="M277.3,101.9c-4.3-3.9-6.6-9.5-6.9-16.4v-8.5c0.3-6.9,2.6-12.2,6.9-16.4c4.3-3.9,10.2-5.9,17.8-5.9
		c7.6,0,13.5,2,17.8,5.9c4.3,3.9,6.6,9.5,6.9,16.4c0,0.7,0,2.3,0,4.3c0,2,0,3.6,0,4.3c-0.3,6.9-2.6,12.5-6.9,16.4
		c-4.3,3.9-10.2,5.9-17.8,5.9C287.5,107.8,281.6,105.8,277.3,101.9z M303.4,94.7c2-2.3,3-5.3,3-9.5c0-0.7,0-2,0-3.9c0-2,0-3.3,0-3.9
		c0-4.3-1-7.6-3-9.5c-2-2.3-4.6-3.3-7.9-3.3c-3.6,0-6.3,1-8.2,3.3c-2,2.3-3,5.3-3,9.5v7.9c0,4.3,1,7.2,3,9.5c2,2.3,4.6,3.3,8.2,3.3
		C298.7,98,301.7,97,303.4,94.7z"/>
</g>
<g id="Layer_3">
	<path class="st1" d="M327.7,106.2c-0.3-0.3-0.7-1-0.7-1.6V58.2c0-0.7,0.3-1.3,0.7-1.6c0.3-0.3,1-0.7,1.6-0.7h7.9
		c0.7,0,1.3,0.3,1.6,0.7c0.3,0.3,0.7,1,0.7,1.6v3.3c3.6-4.6,8.2-6.6,14.2-6.6c7.3,0,12.5,3,15.2,8.9c1.6-2.6,4-4.6,6.6-6.2
		c3-1.6,5.9-2.3,9.2-2.3c5.3,0,9.9,2,13.2,5.6c3.3,3.6,5.3,8.9,5.3,16.1v28.3c0,0.7-0.3,1.3-0.7,1.6c-0.3,0.3-1,0.7-1.6,0.7h-8.2
		c-0.7,0-1.3-0.3-1.6-0.7c-0.3-0.3-0.7-1-0.7-1.6V77.6c0-4.3-1-7.2-2.6-8.9c-1.6-2-4-2.6-6.9-2.6c-2.6,0-4.6,1-6.6,3
		c-1.6,2-2.6,4.9-2.6,8.9v27.6c0,0.7-0.3,1.3-0.7,1.6c-0.3,0.3-1,0.7-1.6,0.7H361c-0.7,0-1.3-0.3-1.6-0.7c-0.3-0.3-0.7-1-0.7-1.6
		V77.9c0-3.9-1-6.9-2.6-8.9c-1.6-2-4-3-6.9-3c-2.6,0-4.6,1-6.6,3c-1.6,2-2.6,4.9-2.6,8.9v27.6c0,0.7-0.3,1.3-0.7,1.6
		c-0.3,0.3-1,0.7-1.6,0.7h-8.2C329.1,106.8,328.4,106.8,327.7,106.2z"/>
</g>
<g id="Layer_4">
	<path class="st1" d="M425.3,100.9v3.6c0,0.7-0.3,1.3-0.7,1.6c-0.3,0.3-1,0.7-1.6,0.7h-7.9c-0.7,0-1.3-0.3-1.6-0.7
		c-0.3-0.3-0.7-1-0.7-1.6V39.5c0-0.7,0.3-1.3,0.7-1.6c0.3-0.3,1-0.7,1.6-0.7h8.6c0.7,0,1.3,0.3,1.6,0.7c0.3,0.3,0.7,1,0.7,1.6v21.7
		c3.6-4.3,8.6-6.6,15.2-6.6c6.6,0,11.9,2.3,15.5,6.6s5.6,9.9,5.6,16.8c0,0.7,0,2,0,3.3s0,2.3,0,3.3c-0.3,7.2-2.3,12.8-5.6,17.1
		c-3.6,4.3-8.6,6.2-15.2,6.2C434.2,107.8,428.9,105.5,425.3,100.9z M448.4,84.5c0-0.7,0-1.6,0-3s0-2.3,0-3
		c-0.3-8.5-4.3-13.1-11.2-13.1c-3.6,0-6.3,1-8.2,3.3c-2,2.3-3,4.9-3,8.2c0,0.7,0,2,0,3.9c0,1.6,0,3,0,3.6c0,3.6,1,6.6,3,8.9
		c2,2.3,4.6,3.6,8.2,3.6C444.1,97.3,448,93,448.4,84.5z"/>
</g>
<g id="Layer_5">
	<path class="st1" d="M469.5,46.7c-0.3-0.3-0.7-1-0.7-1.6v-7.2c0-0.7,0.3-1.3,0.7-1.6c0.3-0.3,1-0.7,1.6-0.7h9.2
		c0.7,0,1.3,0.3,1.6,0.7c0.3,0.3,0.7,1,0.7,1.6V45c0,0.7-0.3,1.3-0.7,1.6c-0.3,0.3-1,0.7-1.6,0.7h-9.2
		C470.5,47.3,469.8,47.3,469.5,46.7z M469.8,106.2c-0.3-0.3-0.7-1-0.7-1.6V58.2c0-0.7,0.3-1.3,0.7-1.6c0.3-0.3,1-0.7,1.6-0.7h8.2
		c0.7,0,1.3,0.3,1.6,0.7c0.3,0.3,0.7,1,0.7,1.6v46.3c0,0.7-0.3,1.3-0.7,1.6c-0.3,0.3-1,0.7-1.6,0.7h-8.2
		C470.8,106.8,470.1,106.8,469.8,106.2z"/>
</g>
<g id="Layer_6">
	<path class="st1" d="M491.9,106.2c-0.3-0.3-0.7-1-0.7-1.6V58.2c0-0.7,0.3-1.3,0.7-1.6c0.3-0.3,1-0.7,1.6-0.7h8.2
		c0.7,0,1.3,0.3,1.6,0.7c0.3,0.3,0.7,1,0.7,1.6v3.9c4-4.9,9.6-7.2,16.5-7.2c5.9,0,10.9,2,14.5,5.9c3.6,3.9,5.3,9.2,5.3,16.1v27.6
		c0,0.7-0.3,1.3-0.7,1.6c-0.3,0.3-1,0.7-1.6,0.7h-8.9c-0.7,0-1.3-0.3-1.6-0.7c-0.3-0.3-0.7-1-0.7-1.6V77.6c0-3.9-1-6.9-3-8.9
		c-2-2-4.6-3.3-7.9-3.3c-3.3,0-5.9,1-8.2,3.3c-2,2.3-3,5.3-3,8.9v26.9c0,0.7-0.3,1.3-0.7,1.6c-0.3,0.3-1,0.7-1.6,0.7h-8.9
		C492.9,106.8,492.5,106.8,491.9,106.2z"/>
</g>
<g id="Layer_7">
	<path class="st1" d="M554.5,105.8c-2.6-1.3-4.9-3.3-6.6-5.6c-1.6-2.3-2.3-4.9-2.3-7.6c0-4.6,1.6-8.2,5.3-10.8
		c3.6-2.6,8.6-4.6,14.8-5.6l13.5-2v-2c0-3-0.7-4.9-2.3-6.2c-1.3-1.3-3.6-2.3-6.9-2.3c-2.3,0-4,0.3-5.3,1.3c-1.3,0.7-2.3,1.6-3.3,2.3
		c-0.7,0.7-1.3,1.3-1.6,1.6c-0.3,0.7-0.7,1.3-1.3,1.3h-7.3c-0.7,0-1-0.3-1.6-0.7c-0.3-0.3-0.7-1-0.7-1.6c0-1.6,1-3.6,2.3-5.6
		c1.6-2,4-3.9,7.3-5.3c3.3-1.6,7.3-2.3,11.9-2.3c7.9,0,13.5,1.6,17.1,5.3c3.6,3.6,5.3,7.9,5.3,13.8v30.9c0,0.7-0.3,1.3-0.7,1.6
		c-0.3,0.3-1,0.7-1.6,0.7h-8.2c-0.7,0-1.3-0.3-1.6-0.7c-0.3-0.3-0.7-1-0.7-1.6v-3.9c-1.3,2-3.6,3.9-6.3,5.3c-2.6,1.3-5.9,2-9.9,2
		C560.4,107.8,557.5,107.2,554.5,105.8z M576.2,95c2.3-2.3,3.3-5.9,3.3-10.2v-2l-9.9,1.6c-7.6,1.3-11.2,3.6-11.2,7.6
		c0,2,1,3.6,2.6,4.9c1.6,1,4,1.6,6.3,1.6C571,98.6,573.9,97.3,576.2,95z"/>
</g>
<g id="Layer_8">
	<path class="st1" d="M610.9,102.2c-3-3-4.6-7.6-4.6-13.8V66.1h-7.9c-0.7,0-1.3-0.3-1.6-0.7c-0.3-0.3-0.7-1-0.7-1.6v-5.9
		c0-0.7,0.3-1.3,0.7-1.6c0.3-0.3,1-0.7,1.6-0.7h7.9V39.1c0-0.7,0.3-1.3,0.7-1.6c0.3-0.3,1-0.7,1.6-0.7h8.2c0.7,0,1.3,0.3,1.6,0.7
		c0.3,0.3,0.7,1,0.7,1.6v16.4h12.2c0.7,0,1.3,0.3,1.6,0.7c0.3,0.3,0.7,1,0.7,1.6v5.9c0,0.7-0.3,1.3-0.7,1.6c-0.3,0.3-1,0.7-1.6,0.7
		h-12.2v21c0,3,0.3,4.9,1.3,6.2s2.6,2.3,4.9,2.3h6.9c0.7,0,1.3,0.3,1.6,0.7c0.3,0.3,0.7,1,0.7,1.6v6.2c0,0.7-0.3,1.3-0.7,1.6
		c-0.3,0.3-1,0.7-1.6,0.7H624C618.4,106.8,613.8,105.5,610.9,102.2z"/>
</g>
<g id="Layer_9">
	<path class="st1" d="M644.1,101.6c-4.3-4.3-6.6-10.2-6.9-18.1v-2.3c0-8.2,2.3-14.8,6.6-19.4c4.3-4.6,10.2-7.2,17.8-7.2
		c7.9,0,13.8,2.3,18.1,7.2C684,66.4,686,73,686,80.5v2c0,0.7-0.3,1.3-0.7,1.6c-0.3,0.3-1,0.7-1.6,0.7h-32.6v0.7c0,3.6,1,6.6,3,9.2
		c2,2.3,4.6,3.6,7.9,3.6c3.6,0,6.9-1.6,9.2-4.6c0.7-0.7,1-1.3,1.3-1.3c0.3,0,1-0.3,1.6-0.3h8.6c0.7,0,1,0.3,1.6,0.3
		c0.3,0.3,0.7,0.7,0.7,1.3c0,1.6-1,3.3-3,5.6c-2,2-4.6,3.9-7.9,5.6c-3.6,1.6-7.6,2.3-12.2,2.3C654.4,107.8,648.4,105.8,644.1,101.6z
		 M672.5,76.9c0-3.9-1-7.2-3-9.5c-2-2.3-4.6-3.6-7.9-3.6c-3.3,0-5.9,1.3-7.9,3.6c-2,2.3-3,5.6-3,9.2v0.3H672.5z"/>
</g>
<g id="Layer_10">
	<path class="st1" d="M693,46h-2.9v8h-1.2v-8H686v-1h7V46z"/>
	<path class="st1" d="M695.8,45l2.9,7.3l2.9-7.3h1.5v9h-1.2v-3.5l0.1-3.8l-3,7.3h-0.9l-2.9-7.3l0.1,3.8V54h-1.2v-9H695.8z"/>
</g>
</svg>
